PathFileType	4	(X/Y/Z)	C:/Users/cpontonn/Documents/TRAVAIL - COURS/FORMATION DOCTORALE/COURS 2E/2023/TP OPENSIM/DATA/marche.trc	
DataRate	CameraRate	NumFrames	NumMarkers	Units	OrigDataRate	OrigDataStartFrame	OrigNumFrames	
100.00	100.00	5	38	mm	100.00	166	414	
Frame#	Time	LFHD			LBHD			RFHD			RBHD			C7			T10			CLAV			STRN			LSHO			LRAD			LHUM			LWRB			LWRA			LCAR			RSHO			RRAD			RHUM			RWRB			RWRA			RCAR			LFWT			LBWT			RFWT			RBWT			LKNE			LKNI			LANE			LHEE			LANI			LTAR			LTOE			RKNE			RKNI			RANE			RHEE			RANI			RTAR			RTOE			
		X1	Y1	Z1	X2	Y2	Z2	X3	Y3	Z3	X4	Y4	Z4	X5	Y5	Z5	X6	Y6	Z6	X7	Y7	Z7	X8	Y8	Z8	X9	Y9	Z9	X10	Y10	Z10	X11	Y11	Z11	X12	Y12	Z12	X13	Y13	Z13	X14	Y14	Z14	X15	Y15	Z15	X16	Y16	Z16	X17	Y17	Z17	X18	Y18	Z18	X19	Y19	Z19	X20	Y20	Z20	X21	Y21	Z21	X22	Y22	Z22	X23	Y23	Z23	X24	Y24	Z24	X25	Y25	Z25	X26	Y26	Z26	X27	Y27	Z27	X28	Y28	Z28	X29	Y29	Z29	X30	Y30	Z30	X31	Y31	Z31	X32	Y32	Z32	X33	Y33	Z33	X34	Y34	Z34	X35	Y35	Z35	X36	Y36	Z36	X37	Y37	Z37	X38	Y38	Z38	

52	0.510	2055.06445	107.06163	1710.97729	2202.29395	114.93818	1701.68103	2043.82959	240.98824	1725.72229	2206.20361	243.48401	1709.58472	2272.71582	210.45981	1598.80444	2401.77490	224.04744	1397.02893	2165.71777	211.51843	1492.76294	2172.76221	222.81308	1311.01868	2233.87695	8.78461	1539.97449	2359.68188	-29.13812	1186.41711	2375.84961	32.70212	1200.43640	2323.81274	-43.03544	933.28156	2282.29175	22.23881	930.19501	2277.46143	-31.57785	850.99475	2223.13184	401.30704	1552.26038	2318.25732	497.56387	1194.70361	2352.23999	449.09494	1203.94788	2265.60254	526.17737	940.51813	2231.80615	462.36444	934.62103	2227.35425	523.31732	862.40198	2187.17871	137.54033	1052.43262	2382.17212	191.54575	1091.86890	2197.05908	326.85721	1038.09448	2385.77979	273.06473	1084.13782	2180.06763	75.83768	551.96710	2180.01221	189.75137	520.21448	2229.97998	125.48289	99.67031	2315.82153	174.02562	22.74954	2230.07397	214.33186	109.42640	2072.06152	115.01637	44.26583	2024.64551	201.76314	45.74516	2271.27417	392.29416	515.66626	2274.72363	293.62943	469.85583	2649.55884	354.01364	250.29332	2730.39355	276.82089	290.91647	2608.97290	269.03729	247.79314	2643.77295	381.99500	82.30161	2600.35938	304.70950	32.83521 
53	0.520	2044.15295	106.43301	1712.83130	2191.45264	113.77202	1703.51868	2033.40002	240.26952	1727.64661	2195.76709	242.25021	1711.38708	2262.32544	208.83600	1600.55420	2391.40869	221.82967	1398.81592	2155.50806	210.88776	1494.40088	2162.24805	222.42877	1312.62463	2222.03882	7.59241	1541.53662	2344.89063	-31.88650	1186.79199	2361.88892	29.79516	1200.85718	2303.54272	-44.12248	934.32483	2262.42407	21.48823	932.53052	2255.15723	-31.94651	853.25055	2214.15015	400.12918	1554.30945	2309.89697	496.20599	1196.79980	2343.30566	447.30679	1205.78857	2256.22729	525.48108	942.80438	2221.62109	462.09503	937.14069	2217.45776	523.00739	865.01959	2176.58203	136.93771	1054.01721	2371.53369	191.07683	1093.33447	2183.73877	326.27121	1041.16565	2375.32642	272.55090	1085.74170	2176.57129	75.60242	551.83514	2175.94727	189.52695	519.77753	2229.84277	125.45508	99.77727	2315.80518	174.01601	22.94484	2229.75073	214.22839	109.60797	2071.96997	114.99679	44.10004	2024.52332	201.72278	45.51309	2247.36182	392.11423	519.31537	2250.30249	293.15439	473.40659	2622.83960	353.82248	250.63196	2706.17749	278.72964	289.68384	2583.26270	268.96259	249.90924	2611.90063	380.21155	82.59399	2568.10986	301.85483	35.13868 
54	0.530	2033.28796	105.87090	1714.71448	2180.58960	112.75375	1705.46594	2022.98413	239.86937	1729.42480	2185.29810	241.08990	1713.25684	2251.98682	207.38454	1602.35156	2381.01587	219.73143	1400.55066	2145.24219	210.37303	1496.11755	2151.88306	222.02713	1314.32800	2210.29712	6.54625	1543.11511	2330.03442	-34.56218	1187.20544	2347.85059	27.06224	1201.03076	2281.12964	-46.28038	935.50055	2242.67969	20.78895	934.91010	2232.76709	-32.35786	855.69525	2205.26001	399.09583	1556.35083	2301.54175	494.74411	1198.75354	2334.41724	445.38113	1207.63428	2246.99585	524.63251	945.12744	2211.50391	461.79526	939.65137	2207.77051	522.80847	867.57581	2166.21411	136.17224	1055.56384	2360.97192	190.67291	1094.86841	2173.07813	325.62982	1043.87988	2364.87793	272.18344	1087.41577	2173.03198	75.52495	551.58423	2172.19922	189.37648	519.49188	2229.70313	125.40461	99.90842	2315.77539	174.01773	23.15177	2229.48071	214.10298	109.70872	2071.87598	114.93015	43.92255	2024.42444	201.69496	45.26115	2223.60718	391.78729	523.31055	2225.99731	292.60553	477.22421	2595.33838	353.78473	249.52498	2680.78760	280.45654	287.13470	2556.58032	268.88577	250.55267	2579.68335	378.33344	81.58814	2535.27661	299.04782	36.28596 
55	0.540	2022.36621	105.50522	1716.53394	2169.65063	111.85361	1707.51392	2012.56030	239.55605	1731.02856	2174.83472	240.13141	1715.14587	2241.73804	206.02072	1604.14404	2370.60205	217.70663	1402.26550	2135.04053	209.87425	1497.88428	2141.51196	221.68109	1316.09595	2198.68652	5.58295	1544.74670	2315.02710	-37.17599	1187.67993	2333.71826	24.33019	1201.28943	2260.55103	-47.43743	936.90387	2222.70728	19.99632	937.44019	2210.38159	-32.87409	858.40070	2195.94507	398.04120	1558.29163	2293.34814	493.18347	1200.71143	2325.61597	443.36737	1209.43372	2237.95825	523.83716	947.33484	2201.71265	461.49829	942.07538	2198.31323	522.66351	870.08588	2155.49268	135.24554	1056.99292	2350.38330	190.37770	1096.40393	2165.09033	325.00436	1046.15649	2354.40845	271.87836	1089.20947	2169.47852	75.54780	551.39764	2168.70386	189.34195	519.20251	2229.46313	125.44806	100.08357	2315.73218	173.98335	23.43460	2229.17773	214.10075	109.91816	2071.76953	114.91294	43.71164	2024.23779	201.67589	44.94735	2199.94458	391.40726	527.42352	2201.76025	291.93915	481.10123	2567.14453	353.88037	247.32686	2654.52612	281.80710	283.01819	2529.17065	268.87534	249.94736	2546.42603	376.70908	79.51571	2501.26465	296.66858	36.63577 
56	0.550	2011.44421	105.31293	1718.19922	2158.78345	111.09595	1709.51807	2002.11816	239.42130	1732.55701	2164.37500	239.28812	1717.06287	2231.55786	204.77307	1605.88464	2360.12476	215.76874	1403.88953	2124.87207	209.47977	1499.71936	2131.14819	221.34537	1317.90979	2187.25977	4.73176	1546.49426	2299.73828	-40.33196	1188.36169	2319.34839	21.68654	1201.56165	2240.07373	-48.81114	938.75616	2202.95679	19.27008	940.03973	2187.98779	-33.44349	861.34033	2186.80859	397.18073	1560.84546	2285.29834	491.62915	1202.80737	2316.83813	441.27957	1211.24817	2229.03076	522.96173	949.53424	2192.16528	461.19730	944.48059	2188.14526	522.31793	872.65393	2145.00391	134.28914	1058.52258	2339.82520	190.13843	1097.93762	2154.52441	324.12589	1048.80884	2343.84668	271.67010	1091.08545	2166.08350	75.69986	551.37360	2167.18628	189.51344	518.82684	2229.19531	125.52862	100.33542	2315.64771	174.01631	23.75450	2228.81445	214.13295	110.11155	2071.64868	114.89571	43.46633	2024.00586	201.60559	44.59307	2176.71387	390.91122	531.64069	2178.09961	291.14056	485.37039	2538.38330	353.86163	244.08438	2627.55200	282.85547	277.15103	2501.06860	268.76779	248.24969	2511.96045	375.62418	76.89212	2465.53735	294.88339	36.24974 
